<svg width="226" height="320" viewBox="0 0 226 320" fill="none" xmlns="http://www.w3.org/2000/svg">
<path d="M164.764 160.247L154.703 170.51L111.462 214.714L68.1834 170.51L59.6035 161.767L64.6148 156.674L68.1454 153.025H68.1834L104.933 190.578L104.933 99.3182L117.992 99.3182L117.992 190.578L154.703 153.025L156.222 151.505L161.233 156.674L164.764 160.247Z" fill="#1B1B1B"/>
<path d="M164.764 160.247L154.703 170.51L111.462 214.714L68.1834 170.51L59.6035 161.767L64.6148 156.674L68.1454 153.025H68.1834L104.933 190.578L104.933 99.3182L117.992 99.3182L117.992 190.578L154.703 153.025L156.222 151.505L161.233 156.674L164.764 160.247Z" stroke="#1B1B1B"/>
</svg>
