<svg width="224" height="226" viewBox="0 0 224 226" fill="none" xmlns="http://www.w3.org/2000/svg">
<path d="M121.5 153L153.11 207.75H89.8901L121.5 153Z" fill="#1B1B1B"/>
<path d="M100.475 204.09C99.7247 204.09 99.1217 203.994 98.6657 203.802V202.938C98.9237 203.034 99.1997 203.112 99.4937 203.172C99.7937 203.232 100.091 203.262 100.385 203.262C100.847 203.262 101.192 203.208 101.42 203.1C101.654 202.992 101.771 202.776 101.771 202.452C101.771 202.254 101.723 202.095 101.627 201.975C101.531 201.855 101.372 201.753 101.15 201.669C100.928 201.579 100.622 201.486 100.232 201.39C99.6077 201.228 99.1697 201.024 98.9177 200.778C98.6657 200.526 98.5397 200.181 98.5397 199.743C98.5397 199.233 98.7257 198.834 99.0977 198.546C99.4697 198.258 100.025 198.114 100.763 198.114C101.099 198.114 101.414 198.138 101.708 198.186C102.008 198.234 102.242 198.288 102.41 198.348V199.212C101.954 199.038 101.45 198.951 100.898 198.951C100.466 198.951 100.13 199.008 99.8897 199.122C99.6497 199.236 99.5297 199.443 99.5297 199.743C99.5297 199.917 99.5717 200.058 99.6557 200.166C99.7397 200.274 99.8837 200.367 100.088 200.445C100.298 200.523 100.586 200.61 100.952 200.706C101.426 200.826 101.792 200.97 102.05 201.138C102.314 201.3 102.497 201.492 102.599 201.714C102.707 201.93 102.761 202.176 102.761 202.452C102.761 202.962 102.572 203.364 102.194 203.658C101.816 203.946 101.243 204.09 100.475 204.09ZM106.655 204.09C105.701 204.09 104.978 203.829 104.486 203.307C104 202.785 103.757 202.08 103.757 201.192C103.757 200.556 103.859 200.01 104.063 199.554C104.273 199.092 104.591 198.738 105.017 198.492C105.443 198.24 105.986 198.114 106.646 198.114C106.982 198.114 107.288 198.141 107.564 198.195C107.846 198.243 108.107 198.309 108.347 198.393V199.248C108.107 199.152 107.849 199.08 107.573 199.032C107.303 198.978 107.018 198.951 106.718 198.951C105.998 198.951 105.488 199.143 105.188 199.527C104.894 199.911 104.747 200.466 104.747 201.192C104.747 201.87 104.909 202.386 105.233 202.74C105.557 203.088 106.058 203.262 106.736 203.262C107.012 203.262 107.288 203.241 107.564 203.199C107.846 203.151 108.11 203.079 108.356 202.983V203.847C108.116 203.925 107.855 203.985 107.573 204.027C107.297 204.069 106.991 204.09 106.655 204.09ZM109.532 204V198.204H112.196C112.844 198.204 113.315 198.372 113.609 198.708C113.909 199.038 114.059 199.488 114.059 200.058C114.059 200.466 113.957 200.814 113.753 201.102C113.549 201.39 113.255 201.591 112.871 201.705C112.979 201.783 113.063 201.867 113.123 201.957C113.183 202.047 113.243 202.167 113.303 202.317L114.032 204H113.024L112.313 202.38C112.247 202.224 112.166 202.113 112.07 202.047C111.98 201.981 111.824 201.948 111.602 201.948H110.513V204H109.532ZM110.513 201.156H111.935C112.289 201.156 112.568 201.069 112.772 200.895C112.976 200.721 113.078 200.442 113.078 200.058C113.078 199.332 112.727 198.969 112.025 198.969H110.513V201.156ZM117.683 204.09C116.765 204.09 116.078 203.85 115.622 203.37C115.166 202.884 114.938 202.134 114.938 201.12C114.938 200.064 115.166 199.299 115.622 198.825C116.078 198.351 116.765 198.114 117.683 198.114C118.607 198.114 119.294 198.351 119.744 198.825C120.2 199.299 120.428 200.064 120.428 201.12C120.428 202.134 120.2 202.884 119.744 203.37C119.294 203.85 118.607 204.09 117.683 204.09ZM117.683 203.262C118.289 203.262 118.733 203.097 119.015 202.767C119.303 202.431 119.447 201.882 119.447 201.12C119.447 200.316 119.303 199.755 119.015 199.437C118.733 199.113 118.289 198.951 117.683 198.951C117.083 198.951 116.639 199.113 116.351 199.437C116.069 199.755 115.928 200.316 115.928 201.12C115.928 201.882 116.069 202.431 116.351 202.767C116.639 203.097 117.083 203.262 117.683 203.262ZM121.61 204V198.204H122.591V203.244H125.561V204H121.61ZM126.563 204V198.204H127.544V203.244H130.514V204H126.563ZM136.291 204.09C135.493 204.09 134.872 203.898 134.428 203.514C133.99 203.13 133.771 202.575 133.771 201.849V198.204H134.752V201.813C134.752 202.299 134.884 202.662 135.148 202.902C135.418 203.142 135.799 203.262 136.291 203.262C136.777 203.262 137.152 203.142 137.416 202.902C137.686 202.662 137.821 202.299 137.821 201.813V198.204H138.793V201.849C138.793 202.575 138.574 203.13 138.136 203.514C137.698 203.898 137.083 204.09 136.291 204.09ZM140.106 204V198.204H142.689C143.133 198.204 143.499 198.288 143.787 198.456C144.075 198.624 144.288 198.855 144.426 199.149C144.564 199.437 144.633 199.767 144.633 200.139C144.633 200.715 144.453 201.177 144.093 201.525C143.739 201.873 143.259 202.047 142.653 202.047H141.087V204H140.106ZM141.087 201.273H142.473C142.863 201.273 143.157 201.171 143.355 200.967C143.553 200.763 143.652 200.487 143.652 200.139C143.652 199.767 143.556 199.479 143.364 199.275C143.178 199.071 142.896 198.969 142.518 198.969H141.087V201.273Z" fill="white"/>
<path d="M66.0725 79.7196C35.4104 77.1499 12.7008 72.0853 6.29517 65.9978C15.8942 72.1103 37.8117 77.0938 66.0725 79.7196Z" fill="white" stroke="black" stroke-width="2" stroke-miterlimit="10"/>
<path d="M158.876 72.4035C158.876 73.1956 158.52 73.9628 157.841 74.705C155.658 77.0939 150.163 79.1958 142.534 80.7364C132.804 81.2541 122.494 81.5285 111.816 81.5285C101.138 81.5285 90.8343 81.2541 81.0981 80.7364C73.47 79.1958 67.9688 77.0939 65.792 74.6988C65.1121 73.9628 64.7566 73.1956 64.7566 72.4035C64.7566 66.3347 85.8196 61.4136 111.81 61.4136C137.8 61.4136 158.876 66.3347 158.876 72.4035Z" fill="white" stroke="black" stroke-width="2" stroke-miterlimit="10"/>
<path d="M217.331 66.0103C210.919 72.0915 188.222 77.1499 157.572 79.7196C185.808 77.0938 207.726 72.1165 217.331 66.0103Z" fill="white" stroke="black" stroke-width="2" stroke-miterlimit="10"/>
<path d="M222.639 59.0496C222.639 61.4758 220.78 63.8148 217.325 66.0103C218.529 64.8689 219.159 63.6901 219.159 62.4863C219.159 54.7958 193.474 48.1719 156.493 45.1656C142.896 44.0616 127.759 43.4441 111.816 43.4441C95.8741 43.4441 80.7426 44.0616 67.1393 45.1656C30.1589 48.1719 4.46789 54.7958 4.46789 62.4863C4.46789 63.6901 5.09784 64.8626 6.29539 65.9978C2.85869 63.8086 1 61.4696 1 59.0496C1 49.962 27.0902 42.1218 64.7692 38.498C64.8627 38.4918 64.9563 38.4793 65.0498 38.4731C79.2582 37.1133 95.1069 36.3586 111.823 36.3586C128.538 36.3586 144.381 37.1133 158.595 38.4731C158.689 38.4793 158.782 38.4918 158.876 38.498C196.549 42.1218 222.639 49.962 222.639 59.0496Z" stroke="#1A1A1A" stroke-width="2" stroke-miterlimit="10"/>
<path d="M156.499 45.1656C142.902 44.0616 127.765 43.4441 111.822 43.4441C95.88 43.4441 80.7486 44.0616 67.1453 45.1656C30.1649 48.1719 4.47388 54.7958 4.47388 62.4863C4.47388 63.69 5.10383 64.8626 6.30137 65.9978C15.9004 72.1103 37.8179 77.0938 66.0787 79.7196C66.1224 79.7196 66.1785 79.7259 66.2222 79.7321H66.2284C71.424 84.4849 89.8674 87.9964 111.829 87.9964C133.784 87.9964 152.233 84.4849 157.423 79.7321C157.429 79.7321 157.429 79.7321 157.435 79.7321C157.479 79.7259 157.535 79.7196 157.578 79.7196C185.82 77.0938 207.732 72.1165 217.337 66.0103C218.541 64.8689 219.171 63.69 219.171 62.4863C219.165 54.7958 193.48 48.1719 156.499 45.1656ZM157.84 74.7049C155.657 77.0938 150.162 79.1957 142.534 80.7363C142.266 80.7924 141.998 80.8423 141.73 80.8985C133.603 82.4578 123.186 83.3996 111.822 83.3996C100.458 83.3996 90.042 82.4578 81.915 80.8985C81.6405 80.8423 81.3723 80.7924 81.1104 80.7363C73.4823 79.1957 67.981 77.0938 65.8043 74.6987C65.1244 73.9627 64.7689 73.1955 64.7689 72.4034C64.7689 66.3346 85.8319 61.4135 111.822 61.4135C137.813 61.4135 158.876 66.3346 158.876 72.4034C158.876 73.1955 158.52 73.9627 157.84 74.7049Z" fill="#1A1A1A" stroke="#1A1A1A" stroke-width="2" stroke-miterlimit="10"/>
<path d="M158.876 72.4035C158.876 73.1956 158.52 73.9628 157.841 74.705C155.657 77.0939 150.163 79.1958 142.534 80.7364C142.266 80.7925 141.998 80.8424 141.73 80.8986C132.218 81.4412 122.189 81.7344 111.822 81.7344C101.456 81.7344 91.4268 81.4412 81.9151 80.8986C81.6407 80.8424 81.3725 80.7925 81.1105 80.7364C73.4824 79.1958 67.9812 77.0939 65.8044 74.6988C65.1245 73.9628 64.769 73.1956 64.769 72.4035C64.769 66.3347 85.832 61.4136 111.822 61.4136C137.813 61.4136 158.876 66.3347 158.876 72.4035Z" stroke="black" stroke-width="2" stroke-miterlimit="10"/>
<path d="M157.84 74.7049C155.657 77.0938 150.162 79.1957 142.534 80.7363C142.266 80.7924 141.998 80.8423 141.73 80.8985C133.603 82.4578 123.186 83.3996 111.822 83.3996C100.458 83.3996 90.042 82.4578 81.9149 80.8985C81.6405 80.8423 81.3723 80.7924 81.1103 80.7363C73.4822 79.1957 67.981 77.0938 65.8042 74.6987C70.3324 69.7339 89.2186 66.0103 111.828 66.0103C134.426 66.0103 153.312 69.7339 157.84 74.7049Z" stroke="black" stroke-width="2" stroke-miterlimit="10"/>
<path d="M158.876 72.4035C158.876 73.1956 158.52 73.9628 157.841 74.705C155.657 77.0939 150.163 79.1958 142.534 80.7364C142.266 80.7926 141.998 80.8424 141.73 80.8986C133.603 82.4579 123.187 83.3997 111.822 83.3997C100.458 83.3997 90.0422 82.4579 81.9151 80.8986C81.6407 80.8424 81.3725 80.7926 81.1105 80.7364C73.4824 79.1958 67.9812 77.0939 65.8044 74.6988C65.1245 73.9628 64.769 73.1956 64.769 72.4035C64.769 66.3347 85.832 61.4136 111.822 61.4136C137.813 61.4136 158.876 66.3347 158.876 72.4035Z" fill="white" stroke="#1A1A1A" stroke-width="2" stroke-miterlimit="10"/>
<path d="M116.931 1.24325C95.3562 3.32647 78.1603 18.4517 75.3847 37.6124C71.8545 37.8618 68.4053 38.1488 65.0435 38.4731C67.6069 17.4038 87.566 1 111.816 1C113.544 1 115.253 1.08108 116.931 1.24325Z" stroke="#1A1A1A" stroke-width="2" stroke-miterlimit="10"/>
<path d="M158.589 38.4731C145.834 37.2506 131.763 36.5208 116.924 36.3836C118.615 36.3649 120.324 36.3586 122.033 36.3586C134.8 36.3586 147.056 36.8015 158.464 37.6123C158.52 37.8992 158.558 38.1861 158.589 38.4731Z" stroke="black" stroke-width="2" stroke-miterlimit="10"/>
<path d="M158.471 37.6123C147.063 36.8014 134.807 36.3586 122.039 36.3586C120.324 36.3586 118.621 36.3648 116.931 36.3835C115.241 36.3648 113.532 36.3586 111.823 36.3586C99.055 36.3586 86.7989 36.8014 75.3911 37.6123C78.1604 18.4516 95.3626 3.32639 116.937 1.24316C138.499 3.32639 155.701 18.4516 158.471 37.6123Z" fill="#1A1A1A" stroke="#1A1A1A" stroke-width="2" stroke-miterlimit="10"/>
<path d="M45.39 77.892C53.4644 77.892 60.01 75.6413 60.01 72.8648C60.01 70.0884 53.4644 67.8376 45.39 67.8376C37.3156 67.8376 30.77 70.0884 30.77 72.8648C30.77 75.6413 37.3156 77.892 45.39 77.892Z" fill="white" stroke="#1A1A1A" stroke-width="2" stroke-miterlimit="10"/>
<path d="M178.891 77.892C186.965 77.892 193.511 75.6413 193.511 72.8648C193.511 70.0884 186.965 67.8376 178.891 67.8376C170.817 67.8376 164.271 70.0884 164.271 72.8648C164.271 75.6413 170.817 77.892 178.891 77.892Z" fill="white" stroke="#1A1A1A" stroke-width="2" stroke-miterlimit="10"/>
<path d="M62.7108 63.7712C70.7852 63.7712 77.3308 61.5204 77.3308 58.744C77.3308 55.9675 70.7852 53.7168 62.7108 53.7168C54.6364 53.7168 48.0908 55.9675 48.0908 58.744C48.0908 61.5204 54.6364 63.7712 62.7108 63.7712Z" fill="white" stroke="#1A1A1A" stroke-width="2" stroke-miterlimit="10"/>
<path d="M111.823 58.7438C120.996 58.7438 128.432 56.4931 128.432 53.7166C128.432 50.9402 120.996 48.6895 111.823 48.6895C102.649 48.6895 95.2129 50.9402 95.2129 53.7166C95.2129 56.4931 102.649 58.7438 111.823 58.7438Z" fill="white" stroke="#1A1A1A" stroke-width="2" stroke-miterlimit="10"/>
<path d="M162.213 63.7712C170.287 63.7712 176.833 61.5204 176.833 58.744C176.833 55.9675 170.287 53.7168 162.213 53.7168C154.138 53.7168 147.593 55.9675 147.593 58.744C147.593 61.5204 154.138 63.7712 162.213 63.7712Z" fill="white" stroke="#1A1A1A" stroke-width="2" stroke-miterlimit="10"/>
<path d="M149.209 169.088C148.967 169.467 148.684 169.801 148.371 170.089L149.209 169.088Z" fill="white" stroke="#1A1A1A" stroke-miterlimit="10"/>
<path d="M112.81 134.72L112.785 134.755L111.603 136.493L106.253 144.374C105.432 146.274 103.582 147.438 101.625 147.493C100.893 147.516 100.146 147.379 99.4376 147.073L97.1149 146.066C94.4995 144.934 93.2832 141.866 94.4157 139.251L96.8044 130.127L97.3601 127.986L97.3771 127.925C97.4848 127.673 97.7301 127.508 98.0791 127.418C98.3951 127.336 98.8008 127.316 99.2693 127.353C99.6102 127.37 99.9796 127.425 100.377 127.506C100.64 127.56 100.909 127.613 101.186 127.686C104.054 128.393 107.876 130.074 110.357 131.72C110.584 131.868 110.798 132.018 110.998 132.168C111.344 132.425 111.65 132.67 111.915 132.917C112.215 133.196 112.455 133.471 112.615 133.73C112.629 133.756 112.651 133.781 112.659 133.807C112.868 134.144 112.923 134.455 112.81 134.72Z" fill="white" stroke="#1A1A1A" stroke-miterlimit="10"/>
<path d="M154.346 157.403L149.612 168.335C149.504 168.587 149.375 168.82 149.233 169.04C149.227 169.054 149.22 169.061 149.215 169.081L148.377 170.082L148.377 170.089L147.054 171.66L132.928 188.517C132.357 189.398 127.14 187.139 127.71 186.258L131.84 177.156L132.756 173.104C133.019 171.938 132.415 170.747 131.318 170.267L114.665 163.059C114.467 162.975 114.271 162.918 114.064 162.901C113.332 162.804 112.579 163.087 112.095 163.684L102.646 175.139C102.226 176.1 98.7324 174.59 99.152 173.623L103.653 154.902C102.136 152.102 101.009 148.943 101.608 147.554L101.638 147.486C103.589 147.431 105.439 146.267 106.266 144.367L111.616 136.485L112.798 134.747L112.823 134.713C112.936 134.447 112.882 134.143 112.685 133.806C112.677 133.78 112.656 133.754 112.641 133.728C112.682 133.74 112.709 133.752 112.75 133.763C112.892 133.803 113.028 133.863 113.164 133.923L151.66 150.587C152.11 150.785 152.522 151.032 152.883 151.334C153.425 151.781 153.865 152.326 154.188 152.931C154.873 154.277 154.993 155.918 154.346 157.403Z" fill="white" stroke="#1A1A1A" stroke-miterlimit="10"/>
<path d="M154.831 163.241L147.377 179.372C147.053 180.115 144.839 179.149 145.089 178.383C145.779 176.276 146.418 173.932 147.054 171.66L148.378 170.089L148.377 170.082L149.215 169.081C149.228 169.068 149.234 169.054 149.233 169.041C149.383 168.82 149.505 168.587 149.612 168.335L154.346 157.404C154.994 155.912 154.874 154.278 154.175 152.932C155.218 154.361 156.274 156.183 156.504 157.485C156.872 159.561 155.616 161.422 154.831 163.241Z" fill="white" stroke="#1A1A1A" stroke-miterlimit="10"/>
<path d="M96.8109 130.127C96.0968 129.701 94.7091 128.862 93.8423 128.178C93.558 127.952 93.8164 127.372 94.1662 127.435L97.3666 127.986L96.8109 130.127Z" fill="white" stroke="#1A1A1A" stroke-miterlimit="10"/>
<path d="M114.787 137.244C113.799 137.092 112.441 136.732 111.603 136.486L112.785 134.748L115.103 136.495C115.401 136.714 115.149 137.3 114.787 137.244Z" fill="white" stroke="#1A1A1A" stroke-miterlimit="10"/>
<path d="M101.199 127.693C100.923 127.619 100.646 127.559 100.391 127.512C99.9936 127.438 99.6242 127.383 99.2831 127.359C99.6991 125.772 100.272 124.117 100.991 122.456C101.434 121.421 101.103 125.17 101.199 127.693Z" fill="white" stroke="#1A1A1A" stroke-miterlimit="10" stroke-linecap="round"/>
<path d="M114.381 128.257C113.65 129.946 112.82 131.514 111.928 132.924C111.67 132.676 111.364 132.431 111.012 132.175C110.811 132.025 110.597 131.875 110.37 131.726C112.302 130.052 114.824 127.222 114.381 128.257Z" fill="white" stroke="#1A1A1A" stroke-miterlimit="10" stroke-linecap="round"/>
<path d="M127.136 168.465L114.659 163.066C114.461 162.982 114.265 162.925 114.058 162.909C113.019 159.659 112.907 155.724 113.932 153.347C115.723 149.206 118.444 152.494 122.408 154.207C126.378 155.921 125.667 163.623 127.136 168.465Z" fill="#1A1A1A" stroke="#1A1A1A" stroke-miterlimit="10"/>
<path d="M152.87 151.335C138.941 153.354 140.673 156.744 134.298 154.408C125.386 151.155 129.759 143.221 127.707 140.228L151.647 150.595C152.103 150.786 152.509 151.039 152.87 151.335Z" fill="#1A1A1A" stroke="#1A1A1A" stroke-miterlimit="10"/>
</svg>
