<svg width="221" height="67" viewBox="0 0 221 67" fill="none" xmlns="http://www.w3.org/2000/svg">
<path d="M121.681 32.3122C117.9 32.3122 117.375 36.0454 117.375 36.0454H125.414C125.414 36.0454 125.465 32.3122 121.681 32.3122Z" fill="white"/>
<path d="M103.442 36.0457H96.3149V42.5175H102.624C102.732 42.5175 102.892 42.5199 103.081 42.5175C104.096 42.494 106.02 42.2017 106.02 39.3712C106.02 36.0116 103.442 36.0457 103.442 36.0457Z" fill="white"/>
<path d="M110.145 6.20361C93.9428 6.20361 80.8081 19.1932 80.8081 35.2196C80.8081 51.2459 93.9428 64.2379 110.145 64.2379C126.345 64.2379 139.48 51.2459 139.48 35.2196C139.48 19.1944 126.344 6.20361 110.145 6.20361ZM116.32 24.0329H126.419V27.0143H116.32V24.0329ZM111.215 39.6728C111.215 47.0626 103.442 46.8186 103.442 46.8186H96.3148H96.1063H90.7035V22.6071H96.1063H96.3148H103.442C107.311 22.6071 110.366 24.7211 110.366 29.053C110.366 33.3848 106.631 33.6605 106.631 33.6605C111.555 33.6605 111.215 39.6728 111.215 39.6728ZM130.108 39.2768H117.423C117.423 43.7736 121.73 43.4908 121.73 43.4908C125.797 43.4908 125.656 40.8854 125.656 40.8854H129.965C129.965 47.7991 121.586 47.3254 121.586 47.3254C111.536 47.3254 112.183 38.069 112.183 38.069C112.183 38.069 112.173 28.7678 121.586 28.7678C131.494 28.7678 130.108 39.2768 130.108 39.2768Z" fill="white"/>
<path d="M105.173 29.4286C105.173 26.9104 103.442 26.9104 103.442 26.9104H102.524H96.3149V32.3122H103C104.153 32.3122 105.173 31.9457 105.173 29.4286Z" fill="white"/>
<path d="M191.634 6.06583C175.418 6.06583 162.268 19.2159 162.268 35.4318C162.268 51.6477 175.418 64.7977 191.634 64.7977C207.85 64.7977 221 51.6477 221 35.4318C221 19.2159 207.85 6.06583 191.634 6.06583ZM183.101 50.4589H175.949V28.9421H183.101V50.4589ZM179.525 26.004H179.478C177.078 26.004 175.526 24.3519 175.526 22.2871C175.526 20.1757 177.126 18.5693 179.572 18.5693C182.019 18.5693 183.525 20.1757 183.571 22.2871C183.571 24.3519 182.019 26.004 179.525 26.004ZM208.889 50.4589H201.738V38.9479C201.738 36.0551 200.702 34.0821 198.115 34.0821C196.139 34.0821 194.962 35.413 194.445 36.6976C194.256 37.1574 194.21 37.7999 194.21 38.4429V50.4589H187.059C187.059 50.4589 187.152 30.9607 187.059 28.9421H194.21V31.9887C195.16 30.5225 196.861 28.4371 200.655 28.4371C205.361 28.4371 208.889 31.5123 208.889 38.1212V50.4589Z" fill="white"/>
<circle cx="29.2437" cy="36.0222" r="29.2225" fill="white"/>
<path d="M46.5642 22.6992H11.9237C11.1878 22.6992 10.5913 23.2957 10.5913 24.0314V48.0134C10.5913 48.7492 11.1878 49.3457 11.9237 49.3457H46.5642C47.3001 49.3457 47.8966 48.7492 47.8966 48.0134V24.0314C47.8966 23.2957 47.3001 22.6992 46.5642 22.6992ZM44.3792 25.3638L29.2439 37.0057L14.1087 25.3638H44.3792ZM45.2319 46.6811H13.2559V28.0697L28.4326 39.7436C28.9111 40.1111 29.5768 40.1111 30.0553 39.7436L45.2319 28.0697V46.6811Z" fill="black"/>
</svg>
