<svg width="114" height="36" viewBox="0 0 114 36" fill="none" xmlns="http://www.w3.org/2000/svg">
<g id="SocialMedia">
<g id="behance">
<g id="iconfinder_77-behance_104426 1">
<path id="Vector" d="M63.2027 17.3286C61.2687 17.3286 61 19.238 61 19.238H65.1118C65.1118 19.238 65.138 17.3286 63.2027 17.3286Z" fill="#1B1B1B"/>
<path id="Vector_2" d="M53.8738 19.238H50.2288V22.5481H53.4558C53.5106 22.5481 53.5929 22.5493 53.6891 22.5481C54.2083 22.5361 55.1923 22.3866 55.1923 20.9389C55.1923 19.2206 53.8738 19.238 53.8738 19.238Z" fill="#1B1B1B"/>
<path id="Vector_3" d="M57.3026 3.9751C49.0157 3.9751 42.2979 10.6187 42.2979 18.8155C42.2979 27.0123 49.0157 33.6571 57.3026 33.6571C65.5882 33.6571 72.3061 27.0123 72.3061 18.8155C72.3061 10.6193 65.5876 3.9751 57.3026 3.9751ZM60.4607 13.094H65.626V14.6189H60.4607V13.094ZM57.8497 21.0931C57.8497 24.8727 53.8739 24.7479 53.8739 24.7479H50.2289H50.1222H47.3589V12.3648H50.1222H50.2289H53.8739C55.853 12.3648 57.4153 13.446 57.4153 15.6616C57.4153 17.8771 55.505 18.0181 55.505 18.0181C58.0234 18.0181 57.8497 21.0931 57.8497 21.0931ZM67.5125 20.8906H61.025C61.025 23.1905 63.2277 23.0459 63.2277 23.0459C65.3079 23.0459 65.2354 21.7133 65.2354 21.7133H67.4394C67.4394 25.2494 63.1539 25.0071 63.1539 25.0071C58.0137 25.0071 58.3445 20.2729 58.3445 20.2729C58.3445 20.2729 58.3396 15.5157 63.1539 15.5157C68.2217 15.5157 67.5125 20.8906 67.5125 20.8906Z" fill="#1B1B1B"/>
<path id="Vector_4" d="M54.7591 15.8539C54.7591 14.5659 53.8738 14.5659 53.8738 14.5659H53.4046H50.2288V17.3287H53.6477C54.2375 17.3287 54.7591 17.1413 54.7591 15.8539Z" fill="#1B1B1B"/>
</g>
</g>
<g id="Group 13">
<g id="linkedin">
<g id="Vector_5">
<path id="Vector_6" d="M98.9806 3.90454C90.6869 3.90454 83.9612 10.6302 83.9612 18.924C83.9612 27.2177 90.6869 33.9434 98.9806 33.9434C107.274 33.9434 114 27.2177 114 18.924C114 10.6302 107.274 3.90454 98.9806 3.90454ZM94.6161 26.6097H90.9582V15.6048H94.6161V26.6097ZM92.7873 14.1021H92.7635C91.536 14.1021 90.7421 13.2571 90.7421 12.201C90.7421 11.1211 91.5603 10.2995 92.8116 10.2995C94.0629 10.2995 94.8329 11.1211 94.8568 12.201C94.8568 13.2571 94.0629 14.1021 92.7873 14.1021ZM107.806 26.6097H104.148V20.7223C104.148 19.2427 103.619 18.2337 102.295 18.2337C101.285 18.2337 100.683 18.9143 100.418 19.5714C100.322 19.8065 100.298 20.1352 100.298 20.464V26.6097H96.6405C96.6405 26.6097 96.6884 16.6372 96.6405 15.6048H100.298V17.163C100.784 16.4131 101.654 15.3465 103.595 15.3465C106.001 15.3465 107.806 16.9193 107.806 20.2995V26.6097Z" fill="#1B1B1B"/>
</g>
</g>
<g id="insta">
<g id="instagram 1">
<path id="Vector_7" d="M18.8711 19C18.8711 20.5857 17.5857 21.8711 16 21.8711C14.4143 21.8711 13.1289 20.5857 13.1289 19C13.1289 17.4143 14.4143 16.1289 16 16.1289C17.5857 16.1289 18.8711 17.4143 18.8711 19Z" fill="#1B1B1B"/>
<path id="Vector_8" d="M22.7144 13.9202C22.5764 13.5462 22.3562 13.2076 22.0701 12.9298C21.7922 12.6437 21.454 12.4235 21.0797 12.2855C20.7762 12.1676 20.3203 12.0273 19.4805 11.9891C18.5721 11.9476 18.2997 11.9387 15.9999 11.9387C13.6999 11.9387 13.4275 11.9474 12.5193 11.9888C11.6796 12.0273 11.2234 12.1676 10.9201 12.2855C10.5459 12.4235 10.2074 12.6437 9.92976 12.9298C9.64366 13.2076 9.42348 13.5459 9.28523 13.9202C9.16736 14.2236 9.02705 14.6798 8.98883 15.5196C8.9474 16.4278 8.93848 16.7001 8.93848 19.0002C8.93848 21.3 8.9474 21.5724 8.98883 22.4808C9.02705 23.3206 9.16736 23.7765 9.28523 24.08C9.42348 24.4542 9.64343 24.7925 9.92953 25.0704C10.2074 25.3565 10.5457 25.5766 10.9199 25.7147C11.2234 25.8328 11.6796 25.9731 12.5193 26.0113C13.4275 26.0527 13.6997 26.0614 15.9997 26.0614C18.3 26.0614 18.5723 26.0527 19.4803 26.0113C20.3201 25.9731 20.7762 25.8328 21.0797 25.7147C21.8309 25.4249 22.4247 24.8312 22.7144 24.08C22.8323 23.7765 22.9726 23.3206 23.011 22.4808C23.0525 21.5724 23.0612 21.3 23.0612 19.0002C23.0612 16.7001 23.0525 16.4278 23.011 15.5196C22.9728 14.6798 22.8325 14.2236 22.7144 13.9202ZM15.9999 23.4229C13.5571 23.4229 11.5768 21.4428 11.5768 19C11.5768 16.5571 13.5571 14.577 15.9999 14.577C18.4426 14.577 20.4228 16.5571 20.4228 19C20.4228 21.4428 18.4426 23.4229 15.9999 23.4229ZM20.5977 15.4358C20.0269 15.4358 19.5641 14.973 19.5641 14.4022C19.5641 13.8313 20.0269 13.3685 20.5977 13.3685C21.1685 13.3685 21.6313 13.8313 21.6313 14.4022C21.6311 14.973 21.1685 15.4358 20.5977 15.4358Z" fill="#1B1B1B"/>
<path id="Vector_9" d="M16 4C7.717 4 1 10.717 1 19C1 27.283 7.717 34 16 34C24.283 34 31 27.283 31 19C31 10.717 24.283 4 16 4ZM24.5613 22.5511C24.5197 23.468 24.3739 24.094 24.161 24.6419C23.7135 25.7989 22.7989 26.7135 21.6419 27.161C21.0942 27.3739 20.468 27.5194 19.5513 27.5613C18.6328 27.6032 18.3394 27.6133 16.0002 27.6133C13.6608 27.6133 13.3676 27.6032 12.4489 27.5613C11.5322 27.5194 10.906 27.3739 10.3583 27.161C9.78334 26.9447 9.26286 26.6057 8.83257 26.1674C8.39449 25.7374 8.05551 25.2167 7.83922 24.6419C7.62636 24.0942 7.48056 23.468 7.4389 22.5513C7.39656 21.6326 7.38672 21.3392 7.38672 19C7.38672 16.6608 7.39656 16.3674 7.43867 15.4489C7.48033 14.532 7.6259 13.906 7.83876 13.3581C8.05505 12.7833 8.39426 12.2626 8.83257 11.8326C9.26263 11.3943 9.78334 11.0553 10.3581 10.839C10.906 10.6261 11.532 10.4806 12.4489 10.4387C13.3674 10.3968 13.6608 10.3867 16 10.3867C18.3392 10.3867 18.6326 10.3968 19.5511 10.4389C20.468 10.4806 21.094 10.6261 21.6419 10.8388C22.2167 11.0551 22.7374 11.3943 23.1677 11.8326C23.6057 12.2629 23.9449 12.7833 24.161 13.3581C24.3741 13.906 24.5197 14.532 24.5616 15.4489C24.6034 16.3674 24.6133 16.6608 24.6133 19C24.6133 21.3392 24.6034 21.6326 24.5613 22.5511Z" fill="#1B1B1B"/>
</g>
</g>
</g>
</g>
</svg>
