<svg width="114" height="36" viewBox="0 0 114 36" fill="none" xmlns="http://www.w3.org/2000/svg">
<path d="M63.2027 17.3286C61.2687 17.3286 61 19.238 61 19.238H65.1118C65.1118 19.238 65.138 17.3286 63.2027 17.3286Z" fill="#1B1B1B"/>
<path d="M53.8738 19.238H50.2288V22.5481H53.4558C53.5106 22.5481 53.5929 22.5493 53.6891 22.5481C54.2083 22.5361 55.1923 22.3866 55.1923 20.9389C55.1923 19.2206 53.8738 19.238 53.8738 19.238Z" fill="#1B1B1B"/>
<path d="M57.3026 3.9751C49.0157 3.9751 42.2979 10.6187 42.2979 18.8155C42.2979 27.0123 49.0157 33.6571 57.3026 33.6571C65.5882 33.6571 72.3061 27.0123 72.3061 18.8155C72.3061 10.6193 65.5876 3.9751 57.3026 3.9751ZM60.4607 13.094H65.626V14.6189H60.4607V13.094ZM57.8497 21.0931C57.8497 24.8727 53.8739 24.7479 53.8739 24.7479H50.2289H50.1222H47.3589V12.3648H50.1222H50.2289H53.8739C55.853 12.3648 57.4153 13.446 57.4153 15.6616C57.4153 17.8771 55.505 18.0181 55.505 18.0181C58.0234 18.0181 57.8497 21.0931 57.8497 21.0931ZM67.5125 20.8906H61.025C61.025 23.1905 63.2277 23.0459 63.2277 23.0459C65.3079 23.0459 65.2354 21.7133 65.2354 21.7133H67.4394C67.4394 25.2494 63.1539 25.0071 63.1539 25.0071C58.0137 25.0071 58.3445 20.2729 58.3445 20.2729C58.3445 20.2729 58.3396 15.5157 63.1539 15.5157C68.2217 15.5157 67.5125 20.8906 67.5125 20.8906Z" fill="#1B1B1B"/>
<path d="M54.7591 15.8537C54.7591 14.5657 53.8738 14.5657 53.8738 14.5657H53.4046H50.2288V17.3285H53.6477C54.2375 17.3285 54.7591 17.141 54.7591 15.8537Z" fill="#1B1B1B"/>
<path d="M98.9806 3.90454C90.6869 3.90454 83.9612 10.6302 83.9612 18.924C83.9612 27.2177 90.6869 33.9434 98.9806 33.9434C107.274 33.9434 114 27.2177 114 18.924C114 10.6302 107.274 3.90454 98.9806 3.90454ZM94.6161 26.6097H90.9582V15.6048H94.6161V26.6097ZM92.7873 14.1021H92.7635C91.536 14.1021 90.7421 13.2571 90.7421 12.201C90.7421 11.1211 91.5603 10.2995 92.8116 10.2995C94.0629 10.2995 94.8329 11.1211 94.8568 12.201C94.8568 13.2571 94.0629 14.1021 92.7873 14.1021ZM107.806 26.6097H104.148V20.7223C104.148 19.2427 103.619 18.2337 102.295 18.2337C101.285 18.2337 100.683 18.9143 100.418 19.5714C100.322 19.8065 100.298 20.1352 100.298 20.464V26.6097H96.6405C96.6405 26.6097 96.6884 16.6372 96.6405 15.6048H100.298V17.163C100.784 16.4131 101.654 15.3465 103.595 15.3465C106.001 15.3465 107.806 16.9193 107.806 20.2995V26.6097Z" fill="#1B1B1B"/>
<circle cx="15.925" cy="19.2258" r="14.946" fill="#1B1B1B"/>
<path d="M24.7839 12.4116H7.0667C6.69034 12.4116 6.38525 12.7167 6.38525 13.093V25.3588C6.38525 25.7351 6.69034 26.0402 7.0667 26.0402H24.7839C25.1602 26.0402 25.4653 25.7351 25.4653 25.3588V13.093C25.4653 12.7167 25.1602 12.4116 24.7839 12.4116ZM23.6663 13.7745L15.9253 19.7288L8.18423 13.7745H23.6663ZM24.1024 24.6774H7.7481V15.1584L15.5103 21.1291C15.755 21.3171 16.0955 21.3171 16.3403 21.1291L24.1024 15.1584V24.6774Z" fill="white"/>
</svg>
