<svg width="210" height="64" viewBox="0 0 210 64" fill="none" xmlns="http://www.w3.org/2000/svg">
<g id="Group 14">
<g id="behance">
<g id="iconfinder_77-behance_104426 1">
<g id="Group">
<path id="Vector" d="M115.077 30.3817C111.5 30.3817 111.003 33.9129 111.003 33.9129H118.607C118.607 33.9129 118.656 30.3817 115.077 30.3817Z" fill="white"/>
<path id="Vector_2" d="M97.8243 33.9132H91.0833V40.0348H97.0513C97.1527 40.0348 97.3048 40.037 97.4829 40.0348C98.443 40.0125 100.263 39.7361 100.263 37.0587C100.263 33.8809 97.8243 33.9132 97.8243 33.9132Z" fill="white"/>
<path id="Vector_3" d="M104.165 5.68589C88.8395 5.68589 76.4155 17.9726 76.4155 33.1317C76.4155 48.2909 88.8395 60.5798 104.165 60.5798C119.489 60.5798 131.913 48.2909 131.913 33.1317C131.913 17.9737 119.488 5.68589 104.165 5.68589ZM110.006 22.5504H119.559V25.3705H110.006V22.5504ZM105.177 37.344C105.177 44.3339 97.8242 44.1032 97.8242 44.1032H91.0831H90.8859H85.7755V21.2017H90.8859H91.0831H97.8242C101.484 21.2017 104.374 23.2014 104.374 27.2988C104.374 31.3962 100.841 31.6571 100.841 31.6571C105.498 31.6571 105.177 37.344 105.177 37.344ZM123.047 36.9694H111.049C111.049 41.2229 115.123 40.9554 115.123 40.9554C118.97 40.9554 118.836 38.4909 118.836 38.4909H122.912C122.912 45.0305 114.987 44.5825 114.987 44.5825C105.48 44.5825 106.092 35.8269 106.092 35.8269C106.092 35.8269 106.083 27.0291 114.987 27.0291C124.359 27.0291 123.047 36.9694 123.047 36.9694Z" fill="white"/>
<path id="Vector_4" d="M99.4617 27.6542C99.4617 25.2722 97.8243 25.2722 97.8243 25.2722H96.9566H91.0833V30.3817H97.4062C98.4971 30.3817 99.4617 30.035 99.4617 27.6542Z" fill="white"/>
</g>
</g>
</g>
<g id="Group 13">
<g id="linkedin">
<g id="Vector_5">
<path id="Vector_6" d="M181.244 5.55556C165.906 5.55556 153.467 17.994 153.467 33.3325C153.467 48.6709 165.906 61.1093 181.244 61.1093C196.583 61.1093 209.021 48.6709 209.021 33.3325C209.021 17.994 196.583 5.55556 181.244 5.55556ZM173.173 47.5464H166.408V27.194H173.173V47.5464ZM169.79 24.4148H169.746C167.476 24.4148 166.008 22.8521 166.008 20.8991C166.008 18.9019 167.521 17.3824 169.835 17.3824C172.149 17.3824 173.573 18.9019 173.618 20.8991C173.618 22.8521 172.149 24.4148 169.79 24.4148ZM197.565 47.5464H190.801V36.6583C190.801 33.922 189.822 32.0558 187.374 32.0558C185.505 32.0558 184.392 33.3147 183.903 34.5298C183.724 34.9647 183.681 35.5725 183.681 36.1807V47.5464H176.916C176.916 47.5464 177.005 29.1034 176.916 27.194H183.681V30.0757C184.58 28.6888 186.188 26.7163 189.777 26.7163C194.228 26.7163 197.565 29.6251 197.565 35.8764V47.5464Z" fill="white"/>
</g>
</g>
<g id="instagram">
<g id="instagram 2">
<path id="Vector_7" d="M33.3594 34C33.3594 36.96 30.96 39.3594 28 39.3594C25.04 39.3594 22.6406 36.96 22.6406 34C22.6406 31.04 25.04 28.6406 28 28.6406C30.96 28.6406 33.3594 31.04 33.3594 34Z" fill="white"/>
<path id="Vector_8" d="M40.5337 24.5177C40.2761 23.8196 39.8651 23.1877 39.331 22.669C38.8123 22.1349 38.1808 21.7239 37.4823 21.4663C36.9158 21.2463 36.0647 20.9844 34.4971 20.913C32.8014 20.8357 32.293 20.819 28 20.819C23.7066 20.819 23.1982 20.8353 21.5029 20.9126C19.9353 20.9844 19.0838 21.2463 18.5177 21.4663C17.8192 21.7239 17.1873 22.1349 16.669 22.669C16.1349 23.1877 15.7239 23.8192 15.4659 24.5177C15.2458 25.0842 14.9839 25.9357 14.9126 27.5033C14.8353 29.1986 14.8186 29.707 14.8186 34.0004C14.8186 38.2934 14.8353 38.8018 14.9126 40.4976C14.9839 42.0651 15.2458 42.9162 15.4659 43.4827C15.7239 44.1813 16.1345 44.8127 16.6686 45.3314C17.1873 45.8655 17.8187 46.2765 18.5173 46.5341C19.0838 46.7546 19.9353 47.0165 21.5029 47.0878C23.1982 47.1652 23.7062 47.1814 27.9996 47.1814C32.2934 47.1814 32.8018 47.1652 34.4967 47.0878C36.0643 47.0165 36.9158 46.7546 37.4823 46.5341C38.8845 45.9932 39.9928 44.8849 40.5337 43.4827C40.7537 42.9162 41.0156 42.0651 41.0874 40.4976C41.1647 38.8018 41.181 38.2934 41.181 34.0004C41.181 29.707 41.1647 29.1986 41.0874 27.5033C41.0161 25.9357 40.7542 25.0842 40.5337 24.5177V24.5177ZM28 42.2561C23.44 42.2561 19.7435 38.56 19.7435 34C19.7435 29.44 23.44 25.7439 28 25.7439C32.5596 25.7439 36.2561 29.44 36.2561 34C36.2561 38.56 32.5596 42.2561 28 42.2561ZM36.5825 27.3469C35.517 27.3469 34.6531 26.483 34.6531 25.4175C34.6531 24.3519 35.517 23.488 36.5825 23.488C37.6481 23.488 38.512 24.3519 38.512 25.4175C38.5115 26.483 37.6481 27.3469 36.5825 27.3469Z" fill="white"/>
<path id="Vector_9" d="M28 6C12.5384 6 0 18.5384 0 34C0 49.4616 12.5384 62 28 62C43.4616 62 56 49.4616 56 34C56 18.5384 43.4616 6 28 6ZM43.9811 40.6287C43.9034 42.3403 43.6312 43.5088 43.2339 44.5316C42.3986 46.6913 40.6913 48.3986 38.5316 49.2339C37.5092 49.6312 36.3403 49.903 34.6292 49.9811C32.9146 50.0593 32.3669 50.0781 28.0004 50.0781C23.6335 50.0781 23.0862 50.0593 21.3713 49.9811C19.6602 49.903 18.4912 49.6312 17.4688 49.2339C16.3956 48.8301 15.424 48.1974 14.6208 47.3792C13.803 46.5764 13.1703 45.6044 12.7665 44.5316C12.3692 43.5092 12.097 42.3403 12.0193 40.6292C11.9402 38.9142 11.9219 38.3665 11.9219 34C11.9219 29.6335 11.9402 29.0858 12.0189 27.3713C12.0966 25.6597 12.3683 24.4912 12.7657 23.4684C13.1694 22.3956 13.8026 21.4236 14.6208 20.6208C15.4236 19.8026 16.3956 19.1699 17.4684 18.7661C18.4912 18.3688 19.6597 18.097 21.3713 18.0189C23.0858 17.9407 23.6335 17.9219 28 17.9219C32.3665 17.9219 32.9142 17.9407 34.6287 18.0193C36.3403 18.097 37.5088 18.3688 38.5316 18.7657C39.6044 19.1694 40.5764 19.8026 41.3796 20.6208C42.1974 21.424 42.8306 22.3956 43.2339 23.4684C43.6317 24.4912 43.9034 25.6597 43.9816 27.3713C44.0598 29.0858 44.0781 29.6335 44.0781 34C44.0781 38.3665 44.0598 38.9142 43.9811 40.6287V40.6287Z" fill="white"/>
</g>
</g>
</g>
</g>
</svg>
