<svg width="224" height="240" viewBox="0 0 224 240" fill="none" xmlns="http://www.w3.org/2000/svg">
<g id="Group 55">
<g id="Group 54">
<path id="Polygon" d="M121.5 162.485L153.11 220.602H89.8901L121.5 162.485Z" fill="#1B1B1B"/>
<g id="Group 57">
<path id="scrollup" d="M100.475 214.866C99.7247 214.866 99.1217 214.77 98.6657 214.578V213.714C98.9237 213.81 99.1997 213.888 99.4937 213.948C99.7937 214.008 100.091 214.038 100.385 214.038C100.847 214.038 101.192 213.984 101.42 213.876C101.654 213.768 101.771 213.552 101.771 213.228C101.771 213.03 101.723 212.871 101.627 212.751C101.531 212.631 101.372 212.529 101.15 212.445C100.928 212.355 100.622 212.262 100.232 212.166C99.6077 212.004 99.1697 211.8 98.9177 211.554C98.6657 211.302 98.5397 210.957 98.5397 210.519C98.5397 210.009 98.7257 209.61 99.0977 209.322C99.4697 209.034 100.025 208.89 100.763 208.89C101.099 208.89 101.414 208.914 101.708 208.962C102.008 209.01 102.242 209.064 102.41 209.124V209.988C101.954 209.814 101.45 209.727 100.898 209.727C100.466 209.727 100.13 209.784 99.8897 209.898C99.6497 210.012 99.5297 210.219 99.5297 210.519C99.5297 210.693 99.5717 210.834 99.6557 210.942C99.7397 211.05 99.8837 211.143 100.088 211.221C100.298 211.299 100.586 211.386 100.952 211.482C101.426 211.602 101.792 211.746 102.05 211.914C102.314 212.076 102.497 212.268 102.599 212.49C102.707 212.706 102.761 212.952 102.761 213.228C102.761 213.738 102.572 214.14 102.194 214.434C101.816 214.722 101.243 214.866 100.475 214.866ZM106.655 214.866C105.701 214.866 104.978 214.605 104.486 214.083C104 213.561 103.757 212.856 103.757 211.968C103.757 211.332 103.859 210.786 104.063 210.33C104.273 209.868 104.591 209.514 105.017 209.268C105.443 209.016 105.986 208.89 106.646 208.89C106.982 208.89 107.288 208.917 107.564 208.971C107.846 209.019 108.107 209.085 108.347 209.169V210.024C108.107 209.928 107.849 209.856 107.573 209.808C107.303 209.754 107.018 209.727 106.718 209.727C105.998 209.727 105.488 209.919 105.188 210.303C104.894 210.687 104.747 211.242 104.747 211.968C104.747 212.646 104.909 213.162 105.233 213.516C105.557 213.864 106.058 214.038 106.736 214.038C107.012 214.038 107.288 214.017 107.564 213.975C107.846 213.927 108.11 213.855 108.356 213.759V214.623C108.116 214.701 107.855 214.761 107.573 214.803C107.297 214.845 106.991 214.866 106.655 214.866ZM109.532 214.776V208.98H112.196C112.844 208.98 113.315 209.148 113.609 209.484C113.909 209.814 114.059 210.264 114.059 210.834C114.059 211.242 113.957 211.59 113.753 211.878C113.549 212.166 113.255 212.367 112.871 212.481C112.979 212.559 113.063 212.643 113.123 212.733C113.183 212.823 113.243 212.943 113.303 213.093L114.032 214.776H113.024L112.313 213.156C112.247 213 112.166 212.889 112.07 212.823C111.98 212.757 111.824 212.724 111.602 212.724H110.513V214.776H109.532ZM110.513 211.932H111.935C112.289 211.932 112.568 211.845 112.772 211.671C112.976 211.497 113.078 211.218 113.078 210.834C113.078 210.108 112.727 209.745 112.025 209.745H110.513V211.932ZM117.683 214.866C116.765 214.866 116.078 214.626 115.622 214.146C115.166 213.66 114.938 212.91 114.938 211.896C114.938 210.84 115.166 210.075 115.622 209.601C116.078 209.127 116.765 208.89 117.683 208.89C118.607 208.89 119.294 209.127 119.744 209.601C120.2 210.075 120.428 210.84 120.428 211.896C120.428 212.91 120.2 213.66 119.744 214.146C119.294 214.626 118.607 214.866 117.683 214.866ZM117.683 214.038C118.289 214.038 118.733 213.873 119.015 213.543C119.303 213.207 119.447 212.658 119.447 211.896C119.447 211.092 119.303 210.531 119.015 210.213C118.733 209.889 118.289 209.727 117.683 209.727C117.083 209.727 116.639 209.889 116.351 210.213C116.069 210.531 115.928 211.092 115.928 211.896C115.928 212.658 116.069 213.207 116.351 213.543C116.639 213.873 117.083 214.038 117.683 214.038ZM121.61 214.776V208.98H122.591V214.02H125.561V214.776H121.61ZM126.563 214.776V208.98H127.544V214.02H130.514V214.776H126.563ZM136.291 214.866C135.493 214.866 134.872 214.674 134.428 214.29C133.99 213.906 133.771 213.351 133.771 212.625V208.98H134.752V212.589C134.752 213.075 134.884 213.438 135.148 213.678C135.418 213.918 135.799 214.038 136.291 214.038C136.777 214.038 137.152 213.918 137.416 213.678C137.686 213.438 137.821 213.075 137.821 212.589V208.98H138.793V212.625C138.793 213.351 138.574 213.906 138.136 214.29C137.698 214.674 137.083 214.866 136.291 214.866ZM140.106 214.776V208.98H142.689C143.133 208.98 143.499 209.064 143.787 209.232C144.075 209.4 144.288 209.631 144.426 209.925C144.564 210.213 144.633 210.543 144.633 210.915C144.633 211.491 144.453 211.953 144.093 212.301C143.739 212.649 143.259 212.823 142.653 212.823H141.087V214.776H140.106ZM141.087 212.049H142.473C142.863 212.049 143.157 211.947 143.355 211.743C143.553 211.539 143.652 211.263 143.652 210.915C143.652 210.543 143.556 210.255 143.364 210.051C143.178 209.847 142.896 209.745 142.518 209.745H141.087V212.049Z" fill="white"/>
</g>
<g id="ufo">
<path id="Vector" d="M66.0725 84.699C35.4104 81.9712 12.7008 76.595 6.29517 70.1331C15.8942 76.6215 37.8118 81.9116 66.0725 84.699Z" fill="white" stroke="black" stroke-width="2" stroke-miterlimit="10"/>
<path id="Vector_2" d="M158.876 76.9327C158.876 77.7735 158.52 78.5878 157.841 79.3757C155.658 81.9114 150.163 84.1425 142.534 85.7778C132.804 86.3273 122.494 86.6187 111.816 86.6187C101.138 86.6187 90.8343 86.3273 81.0981 85.7778C73.47 84.1425 67.9688 81.9114 65.792 79.3691C65.1121 78.5878 64.7566 77.7735 64.7566 76.9327C64.7566 70.4908 85.8196 65.2671 111.81 65.2671C137.8 65.2671 158.876 70.4908 158.876 76.9327Z" fill="white" stroke="black" stroke-width="2" stroke-miterlimit="10"/>
<path id="Vector_3" d="M217.331 70.1465C210.919 76.6018 188.222 81.9712 157.572 84.699C185.808 81.9116 207.726 76.6282 217.331 70.1465Z" fill="white" stroke="black" stroke-width="2" stroke-miterlimit="10"/>
<path id="Vector_4" d="M222.639 62.7577C222.639 65.3332 220.78 67.816 217.325 70.1465C218.529 68.9349 219.159 67.6836 219.159 66.4058C219.159 58.2424 193.474 51.2111 156.493 48.0199C142.896 46.848 127.759 46.1926 111.816 46.1926C95.8741 46.1926 80.7426 46.848 67.1393 48.0199C30.1589 51.2111 4.46789 58.2424 4.46789 66.4058C4.46789 67.6836 5.09784 68.9283 6.29539 70.1332C2.85869 67.8094 1 65.3266 1 62.7577C1 53.1113 27.0902 44.789 64.7691 40.9423C64.8627 40.9357 64.9562 40.9224 65.0498 40.9158C79.2581 39.4725 95.1069 38.6714 111.823 38.6714C128.538 38.6714 144.381 39.4725 158.595 40.9158C158.689 40.9224 158.782 40.9357 158.876 40.9423C196.549 44.789 222.639 53.1113 222.639 62.7577Z" stroke="#1A1A1A" stroke-width="2" stroke-miterlimit="10"/>
<path id="Vector_5" d="M156.499 48.0197C142.902 46.8478 127.765 46.1924 111.822 46.1924C95.88 46.1924 80.7486 46.8478 67.1453 48.0197C30.1649 51.2109 4.47388 58.2421 4.47388 66.4055C4.47388 67.6833 5.10383 68.928 6.30137 70.133C15.9004 76.6213 37.8179 81.9113 66.0787 84.6986C66.1224 84.6986 66.1785 84.7053 66.2222 84.7119H66.2284C71.424 89.7569 89.8674 93.4844 111.829 93.4844C133.784 93.4844 152.233 89.7569 157.423 84.7119C157.429 84.7119 157.429 84.7119 157.435 84.7119C157.479 84.7053 157.535 84.6986 157.578 84.6986C185.82 81.9113 207.732 76.628 217.337 70.1462C218.541 68.9346 219.171 67.6833 219.171 66.4055C219.165 58.2421 193.48 51.2109 156.499 48.0197ZM157.84 79.3756C155.657 81.9113 150.162 84.1425 142.534 85.7778C142.266 85.8374 141.998 85.8904 141.73 85.95C133.603 87.6051 123.187 88.6049 111.822 88.6049C100.458 88.6049 90.042 87.6051 81.915 85.95C81.6405 85.8904 81.3723 85.8374 81.1104 85.7778C73.4823 84.1425 67.981 81.9113 65.8043 79.3689C65.1244 78.5877 64.7689 77.7733 64.7689 76.9325C64.7689 70.4905 85.8319 65.2668 111.822 65.2668C137.813 65.2668 158.876 70.4905 158.876 76.9325C158.876 77.7733 158.52 78.5877 157.84 79.3756Z" fill="#1A1A1A" stroke="#1A1A1A" stroke-width="2" stroke-miterlimit="10"/>
<path id="Vector_6" d="M158.876 76.9328C158.876 77.7736 158.52 78.588 157.84 79.3758C155.657 81.9116 150.163 84.1428 142.534 85.7781C142.266 85.8377 141.998 85.8906 141.73 85.9502C132.218 86.5262 122.189 86.8374 111.822 86.8374C101.456 86.8374 91.4268 86.5262 81.9151 85.9502C81.6407 85.8906 81.3724 85.8377 81.1105 85.7781C73.4824 84.1428 67.9812 81.9116 65.8044 79.3692C65.1245 78.588 64.769 77.7736 64.769 76.9328C64.769 70.4908 85.832 65.2671 111.822 65.2671C137.813 65.2671 158.876 70.4908 158.876 76.9328Z" stroke="black" stroke-width="2" stroke-miterlimit="10"/>
<path id="Vector_7" d="M157.84 79.3757C155.657 81.9115 150.162 84.1426 142.534 85.7779C142.266 85.8375 141.998 85.8905 141.73 85.9501C133.603 87.6052 123.186 88.605 111.822 88.605C100.458 88.605 90.042 87.6052 81.9149 85.9501C81.6405 85.8905 81.3723 85.8375 81.1103 85.7779C73.4822 84.1426 67.981 81.9115 65.8042 79.3691C70.3324 74.099 89.2187 70.1465 111.828 70.1465C134.426 70.1465 153.312 74.099 157.84 79.3757Z" stroke="black" stroke-width="2" stroke-miterlimit="10"/>
<path id="Vector_8" d="M158.876 76.9327C158.876 77.7735 158.52 78.5879 157.84 79.3758C155.657 81.9115 150.162 84.1426 142.534 85.7779C142.266 85.8375 141.998 85.8905 141.73 85.9501C133.603 87.6053 123.187 88.605 111.822 88.605C100.458 88.605 90.0422 87.6053 81.9151 85.9501C81.6407 85.8905 81.3724 85.8375 81.1105 85.7779C73.4824 84.1426 67.9812 81.9115 65.8044 79.3691C65.1245 78.5879 64.769 77.7735 64.769 76.9327C64.769 70.4908 85.832 65.2671 111.822 65.2671C137.813 65.2671 158.876 70.4908 158.876 76.9327Z" fill="white" stroke="#1A1A1A" stroke-width="2" stroke-miterlimit="10"/>
<path id="Vector_9" d="M116.931 1.39664C95.3562 3.60797 78.1603 19.6633 75.3847 40.0024C71.8545 40.2672 68.4053 40.5717 65.0435 40.916C67.6069 18.5511 87.566 1.13843 111.816 1.13843C113.544 1.13843 115.253 1.2245 116.931 1.39664Z" stroke="#1A1A1A" stroke-width="2" stroke-miterlimit="10"/>
<path id="Vector_10" d="M158.589 40.9148C145.834 39.6177 131.763 38.8434 116.924 38.6979C118.615 38.678 120.324 38.6714 122.033 38.6714C134.8 38.6714 147.056 39.1412 158.464 40.0016C158.52 40.306 158.558 40.6104 158.589 40.9148Z" stroke="black" stroke-width="2" stroke-miterlimit="10"/>
<path id="Vector_11" d="M158.471 40.0024C147.063 39.1417 134.807 38.6717 122.039 38.6717C120.324 38.6717 118.621 38.6783 116.931 38.6981C115.241 38.6783 113.532 38.6717 111.823 38.6717C99.055 38.6717 86.7989 39.1417 75.3911 40.0024C78.1604 19.6634 95.3626 3.60807 116.937 1.39673C138.499 3.60807 155.701 19.6634 158.471 40.0024Z" fill="#1A1A1A" stroke="#1A1A1A" stroke-width="2" stroke-miterlimit="10"/>
<g id="Lights">
<path id="Vector_12" d="M45.39 82.7588C53.4644 82.7588 60.01 80.3696 60.01 77.4224C60.01 74.4751 53.4644 72.0859 45.39 72.0859C37.3156 72.0859 30.77 74.4751 30.77 77.4224C30.77 80.3696 37.3156 82.7588 45.39 82.7588Z" fill="white" stroke="#1A1A1A" stroke-width="2" stroke-miterlimit="10"/>
<path id="Vector_13" d="M178.891 82.7588C186.965 82.7588 193.511 80.3696 193.511 77.4224C193.511 74.4751 186.965 72.0859 178.891 72.0859C170.817 72.0859 164.271 74.4751 164.271 77.4224C164.271 80.3696 170.817 82.7588 178.891 82.7588Z" fill="white" stroke="#1A1A1A" stroke-width="2" stroke-miterlimit="10"/>
<path id="Vector_14" d="M62.7108 67.7695C70.7852 67.7695 77.3308 65.3804 77.3308 62.4332C77.3308 59.4861 70.7852 57.0969 62.7108 57.0969C54.6364 57.0969 48.0908 59.4861 48.0908 62.4332C48.0908 65.3804 54.6364 67.7695 62.7108 67.7695Z" fill="white" stroke="#1A1A1A" stroke-width="2" stroke-miterlimit="10"/>
<path id="Vector_15" d="M111.823 62.4331C120.996 62.4331 128.432 60.044 128.432 57.0968C128.432 54.1496 120.996 51.7605 111.823 51.7605C102.649 51.7605 95.2129 54.1496 95.2129 57.0968C95.2129 60.044 102.649 62.4331 111.823 62.4331Z" fill="white" stroke="#1A1A1A" stroke-width="2" stroke-miterlimit="10"/>
<path id="Vector_16" d="M162.213 67.7695C170.287 67.7695 176.833 65.3804 176.833 62.4332C176.833 59.4861 170.287 57.0969 162.213 57.0969C154.138 57.0969 147.593 59.4861 147.593 62.4332C147.593 65.3804 154.138 67.7695 162.213 67.7695Z" fill="white" stroke="#1A1A1A" stroke-width="2" stroke-miterlimit="10"/>
</g>
</g>
<g id="cow">
<path id="Vector_17" d="M149.211 179.563C148.968 179.964 148.683 180.319 148.368 180.625L149.211 179.563Z" fill="white" stroke="#1A1A1A" stroke-miterlimit="10"/>
<path id="Vector_18" d="M112.843 143.059L112.817 143.096L111.627 144.939L106.241 153.301C105.412 155.315 103.554 156.553 101.591 156.618C100.857 156.644 100.108 156.501 99.399 156.18L97.0729 155.121C94.4535 153.93 93.2426 150.686 94.3856 147.913L96.8067 138.245L97.37 135.977L97.3872 135.913C97.496 135.646 97.7424 135.47 98.0926 135.373C98.4097 135.285 98.8166 135.263 99.2862 135.301C99.628 135.317 99.9982 135.375 100.396 135.459C100.66 135.515 100.929 135.571 101.207 135.648C104.081 136.387 107.909 138.154 110.391 139.889C110.619 140.046 110.833 140.204 111.034 140.363C111.38 140.633 111.685 140.892 111.951 141.152C112.251 141.447 112.491 141.737 112.65 142.011C112.664 142.038 112.686 142.065 112.694 142.093C112.903 142.449 112.957 142.777 112.843 143.059Z" fill="white" stroke="#1A1A1A" stroke-miterlimit="10"/>
<path id="Vector_19" d="M154.426 167.084L149.649 178.671C149.54 178.938 149.411 179.185 149.267 179.419C149.261 179.433 149.255 179.441 149.249 179.462L148.406 180.525L148.406 180.532L147.075 182.199L132.865 200.088C132.291 201.023 127.067 198.648 127.641 197.713L131.807 188.064L132.737 183.772C133.004 182.537 132.401 181.278 131.303 180.774L114.628 173.194C114.431 173.106 114.234 173.047 114.026 173.03C113.293 172.929 112.537 173.231 112.05 173.864L102.545 186.021C102.121 187.039 98.6225 185.451 99.0459 184.426L103.611 164.593C102.099 161.634 100.977 158.294 101.582 156.821L101.612 156.749C103.568 156.685 105.426 155.447 106.261 153.433L111.647 145.072L112.837 143.229L112.862 143.192C112.977 142.911 112.922 142.589 112.726 142.233C112.719 142.205 112.697 142.178 112.683 142.151C112.723 142.162 112.751 142.175 112.791 142.187C112.933 142.229 113.07 142.292 113.206 142.355L151.753 159.876C152.203 160.084 152.616 160.344 152.977 160.663C153.519 161.135 153.959 161.711 154.28 162.349C154.964 163.773 155.08 165.51 154.426 167.084Z" fill="white" stroke="#1A1A1A" stroke-miterlimit="10"/>
<path id="Vector_20" d="M154.861 173.346L147.322 190.472C146.994 191.26 144.771 190.244 145.024 189.431C145.724 187.195 146.373 184.707 147.019 182.297L148.354 180.627L148.354 180.62L149.199 179.556C149.212 179.542 149.218 179.527 149.217 179.513C149.368 179.279 149.491 179.032 149.6 178.764L154.391 167.16C155.046 165.576 154.93 163.844 154.231 162.419C155.276 163.931 156.332 165.859 156.559 167.239C156.923 169.439 155.655 171.416 154.861 173.346Z" fill="white" stroke="#1A1A1A" stroke-miterlimit="10"/>
<path id="Vector_21" d="M96.8095 138.196C96.0952 137.749 94.7071 136.865 93.8406 136.144C93.5563 135.906 93.8169 135.292 94.1671 135.358L97.3724 135.93L96.8095 138.196Z" fill="white" stroke="#1A1A1A" stroke-miterlimit="10"/>
<path id="Vector_22" d="M114.786 145.751C113.797 145.594 112.437 145.216 111.598 144.959L112.787 143.118L115.105 144.958C115.402 145.189 115.149 145.809 114.786 145.751Z" fill="white" stroke="#1A1A1A" stroke-miterlimit="10"/>
<g id="Group">
<path id="Vector_23" d="M101.196 135.61C100.917 135.535 100.637 135.473 100.379 135.424C99.9778 135.348 99.6045 135.292 99.2594 135.269C99.6887 133.585 100.277 131.828 101.013 130.063C101.467 128.964 101.112 132.939 101.196 135.61Z" fill="white" stroke="#1A1A1A" stroke-miterlimit="10" stroke-linecap="round"/>
<path id="Vector_24" d="M114.404 136.22C113.66 138.009 112.817 139.67 111.913 141.166C111.654 140.906 111.349 140.649 110.995 140.38C110.795 140.223 110.58 140.066 110.352 139.91C112.304 138.129 114.854 135.124 114.404 136.22Z" fill="white" stroke="#1A1A1A" stroke-miterlimit="10" stroke-linecap="round"/>
</g>
<path id="Vector_25" d="M127.136 178.86L114.632 173.18C114.434 173.092 114.237 173.032 114.029 173.015C112.996 169.576 112.895 165.408 113.93 162.887C115.739 158.495 118.46 161.969 122.432 163.772C126.411 165.574 125.676 173.736 127.136 178.86Z" fill="#1A1A1A" stroke="#1A1A1A" stroke-miterlimit="10"/>
<path id="Vector_26" d="M152.879 160.661C138.921 162.839 140.647 166.416 134.269 163.967C125.351 160.557 129.754 152.157 127.706 148.999L151.656 159.882C152.112 160.083 152.518 160.35 152.879 160.661Z" fill="#1A1A1A" stroke="#1A1A1A" stroke-miterlimit="10"/>
</g>
</g>
</g>
</svg>
